<?xml version="1.0" encoding="UTF-8" standalone="no"?><!DOCTYPE svg PUBLIC "-//W3C//DTD SVG 1.1//EN" "http://www.w3.org/Graphics/SVG/1.1/DTD/svg11.dtd"><svg width="100%" height="100%" viewBox="0 0 375 85" version="1.1" xmlns="http://www.w3.org/2000/svg" xmlns:xlink="http://www.w3.org/1999/xlink" xml:space="preserve" xmlns:serif="http://www.serif.com/" style="fill-rule:evenodd;clip-rule:evenodd;stroke-linecap:round;"><g><g id="a"><path d="M39.509,55.894c-0,-1.187 -0.274,-2.187 -0.813,-3c-0.543,-0.82 -1.242,-1.508 -2.093,-2.062c-0.856,-0.563 -1.793,-1.032 -2.813,-1.407c-1.023,-0.375 -2,-0.711 -2.937,-1.015c-1.368,-0.438 -2.758,-0.961 -4.172,-1.578c-1.406,-0.625 -2.696,-1.391 -3.86,-2.297c-1.156,-0.906 -2.105,-1.973 -2.843,-3.203c-0.743,-1.239 -1.11,-2.692 -1.11,-4.36c0,-1.664 0.367,-3.156 1.11,-4.468c0.738,-1.313 1.703,-2.422 2.89,-3.329c1.188,-0.906 2.535,-1.593 4.047,-2.062c1.508,-0.477 3.024,-0.719 4.547,-0.719c1.688,0 3.313,0.281 4.875,0.844c1.563,0.562 2.941,1.351 4.141,2.359c1.207,1.012 2.175,2.235 2.906,3.672c0.726,1.438 1.113,3.043 1.156,4.813l-5.062,-0c-0.149,-1.114 -0.422,-2.125 -0.828,-3.032c-0.407,-0.914 -0.95,-1.703 -1.625,-2.359c-0.68,-0.664 -1.481,-1.176 -2.407,-1.531c-0.929,-0.364 -1.98,-0.547 -3.156,-0.547c-0.937,-0 -1.855,0.137 -2.75,0.406c-0.898,0.262 -1.699,0.656 -2.406,1.188c-0.699,0.531 -1.258,1.187 -1.672,1.968c-0.418,0.782 -0.625,1.688 -0.625,2.719c0.019,1.117 0.301,2.059 0.844,2.828c0.55,0.774 1.25,1.422 2.093,1.953c0.844,0.532 1.754,0.981 2.735,1.344c0.988,0.356 1.922,0.664 2.797,0.922c0.957,0.305 1.922,0.648 2.89,1.031c0.977,0.375 1.922,0.813 2.828,1.313c0.907,0.5 1.75,1.062 2.532,1.687c0.781,0.617 1.461,1.321 2.047,2.11c0.582,0.793 1.035,1.664 1.359,2.609c0.332,0.949 0.5,2 0.5,3.156c-0,1.742 -0.387,3.258 -1.156,4.547c-0.774,1.293 -1.774,2.371 -3,3.235c-1.219,0.867 -2.602,1.515 -4.141,1.953c-1.543,0.425 -3.09,0.64 -4.641,0.64c-1.718,0 -3.406,-0.265 -5.062,-0.797c-1.649,-0.531 -3.121,-1.296 -4.422,-2.296c-1.305,-1.008 -2.367,-2.235 -3.187,-3.672c-0.813,-1.446 -1.247,-3.098 -1.297,-4.953l5.031,-0c0.156,1.21 0.484,2.281 0.984,3.218c0.5,0.93 1.141,1.719 1.922,2.375c0.781,0.649 1.68,1.137 2.703,1.469c1.02,0.324 2.129,0.484 3.328,0.484c0.957,0 1.899,-0.117 2.829,-0.359c0.937,-0.238 1.769,-0.609 2.5,-1.109c0.726,-0.508 1.32,-1.149 1.781,-1.922c0.469,-0.781 0.703,-1.703 0.703,-2.766Z" style="fill-rule:nonzero;"/></g><g id="b"><path d="M51.931,26.941l23.437,0l0,4.281l-9.296,0l-0,30.203l9.296,0l0.001,4.266l-23.438,0l0,-4.266l9.078,0l0,-30.203l-9.078,0l0,-4.281Z" style="fill-rule:nonzero;"/></g><g id="a1" serif:id="a"><path d="M104.947,55.894c-0,-1.187 -0.274,-2.187 -0.813,-3c-0.543,-0.82 -1.242,-1.508 -2.093,-2.062c-0.856,-0.563 -1.793,-1.032 -2.813,-1.407c-1.023,-0.375 -2,-0.711 -2.937,-1.015c-1.368,-0.438 -2.758,-0.961 -4.172,-1.578c-1.406,-0.625 -2.696,-1.391 -3.86,-2.297c-1.156,-0.906 -2.105,-1.973 -2.843,-3.203c-0.743,-1.239 -1.11,-2.692 -1.11,-4.36c0,-1.664 0.367,-3.156 1.11,-4.468c0.738,-1.313 1.703,-2.422 2.89,-3.329c1.188,-0.906 2.535,-1.593 4.047,-2.062c1.508,-0.477 3.024,-0.719 4.547,-0.719c1.688,0 3.313,0.281 4.875,0.844c1.563,0.562 2.941,1.351 4.141,2.359c1.207,1.012 2.175,2.235 2.906,3.672c0.726,1.438 1.113,3.043 1.156,4.813l-5.062,-0c-0.149,-1.114 -0.422,-2.125 -0.829,-3.032c-0.406,-0.914 -0.949,-1.703 -1.625,-2.359c-0.679,-0.664 -1.48,-1.176 -2.406,-1.531c-0.929,-0.364 -1.98,-0.547 -3.156,-0.547c-0.938,-0 -1.855,0.137 -2.75,0.406c-0.898,0.262 -1.699,0.656 -2.406,1.188c-0.699,0.531 -1.258,1.187 -1.672,1.968c-0.418,0.782 -0.625,1.688 -0.625,2.719c0.019,1.117 0.301,2.059 0.844,2.828c0.55,0.774 1.25,1.422 2.093,1.953c0.844,0.532 1.754,0.981 2.735,1.344c0.988,0.356 1.922,0.664 2.797,0.922c0.957,0.305 1.922,0.648 2.89,1.031c0.977,0.375 1.922,0.813 2.828,1.313c0.907,0.5 1.75,1.062 2.532,1.687c0.781,0.617 1.461,1.321 2.047,2.11c0.582,0.793 1.035,1.664 1.359,2.609c0.332,0.949 0.5,2 0.5,3.156c-0,1.742 -0.387,3.258 -1.156,4.547c-0.774,1.293 -1.774,2.371 -3,3.235c-1.219,0.867 -2.602,1.515 -4.141,1.953c-1.543,0.425 -3.09,0.64 -4.641,0.64c-1.718,0 -3.406,-0.265 -5.062,-0.797c-1.649,-0.531 -3.121,-1.296 -4.422,-2.296c-1.305,-1.008 -2.367,-2.235 -3.187,-3.672c-0.813,-1.446 -1.247,-3.098 -1.297,-4.953l5.031,-0c0.156,1.21 0.484,2.281 0.984,3.218c0.5,0.93 1.141,1.719 1.922,2.375c0.781,0.649 1.68,1.137 2.703,1.469c1.02,0.324 2.129,0.484 3.328,0.484c0.957,0 1.899,-0.117 2.829,-0.359c0.937,-0.238 1.769,-0.609 2.5,-1.109c0.726,-0.508 1.32,-1.149 1.781,-1.922c0.469,-0.781 0.703,-1.703 0.703,-2.766Z" style="fill-rule:nonzero;"/></g><g id="c"><path d="M142.588,48.55c-0.024,1.387 -0.149,2.789 -0.375,4.203c-0.219,1.407 -0.559,2.766 -1.016,4.079c-0.461,1.312 -1.047,2.539 -1.766,3.671c-0.718,1.137 -1.578,2.133 -2.578,2.985c-0.992,0.844 -2.132,1.512 -3.422,2c-1.281,0.488 -2.718,0.734 -4.312,0.734c-1.605,0 -3.055,-0.246 -4.344,-0.734c-1.281,-0.488 -2.418,-1.156 -3.406,-2c-0.992,-0.852 -1.852,-1.852 -2.578,-3c-0.731,-1.145 -1.328,-2.375 -1.797,-3.688c-0.469,-1.312 -0.824,-2.664 -1.063,-4.062c-0.23,-1.406 -0.351,-2.801 -0.359,-4.188l0,-4.421c0.008,-1.383 0.125,-2.782 0.344,-4.188c0.226,-1.414 0.578,-2.781 1.047,-4.094c0.469,-1.312 1.062,-2.539 1.781,-3.687c0.719,-1.145 1.57,-2.145 2.563,-3c0.999,-0.864 2.14,-1.539 3.421,-2.031c1.289,-0.489 2.735,-0.735 4.328,-0.735c1.602,0 3.051,0.246 4.344,0.735c1.289,0.492 2.43,1.164 3.422,2.015c1,0.856 1.859,1.856 2.578,3c0.719,1.137 1.313,2.367 1.781,3.688c0.469,1.312 0.813,2.679 1.032,4.093c0.226,1.418 0.351,2.821 0.375,4.204l-0,4.421Zm-4.875,-4.468c-0.024,-0.926 -0.086,-1.891 -0.188,-2.891c-0.105,-1 -0.289,-1.992 -0.547,-2.984c-0.261,-0.989 -0.605,-1.93 -1.031,-2.828c-0.418,-0.895 -0.949,-1.68 -1.594,-2.36c-0.636,-0.687 -1.39,-1.226 -2.265,-1.625c-0.867,-0.394 -1.875,-0.594 -3.032,-0.594c-1.136,0 -2.14,0.204 -3.015,0.61c-0.867,0.406 -1.617,0.953 -2.25,1.64c-0.637,0.68 -1.168,1.465 -1.594,2.36c-0.43,0.898 -0.773,1.84 -1.031,2.828c-0.262,0.98 -0.449,1.976 -0.563,2.984c-0.117,1 -0.179,1.953 -0.187,2.86l-0,4.468c0.008,0.907 0.07,1.868 0.187,2.875c0.114,1.012 0.305,2.012 0.578,3c0.27,0.981 0.614,1.922 1.032,2.829c0.426,0.906 0.957,1.703 1.593,2.39c0.645,0.68 1.399,1.219 2.266,1.625c0.875,0.406 1.891,0.61 3.047,0.61c1.145,-0 2.156,-0.204 3.031,-0.61c0.883,-0.406 1.641,-0.945 2.266,-1.625c0.633,-0.687 1.16,-1.476 1.578,-2.375c0.414,-0.894 0.754,-1.832 1.016,-2.812c0.257,-0.989 0.437,-1.989 0.531,-3c0.094,-1.02 0.148,-1.989 0.172,-2.907l-0,-4.468Z" style="fill-rule:nonzero;"/></g><g id="c1" serif:id="c"><path d="M175.307,48.55c-0.024,1.387 -0.149,2.789 -0.375,4.203c-0.219,1.407 -0.559,2.766 -1.016,4.079c-0.461,1.312 -1.047,2.539 -1.766,3.671c-0.718,1.137 -1.578,2.133 -2.578,2.985c-0.992,0.844 -2.132,1.512 -3.422,2c-1.281,0.488 -2.718,0.734 -4.312,0.734c-1.605,0 -3.055,-0.246 -4.344,-0.734c-1.281,-0.488 -2.418,-1.156 -3.406,-2c-0.992,-0.852 -1.852,-1.852 -2.578,-3c-0.731,-1.145 -1.328,-2.375 -1.797,-3.688c-0.469,-1.312 -0.824,-2.664 -1.063,-4.062c-0.23,-1.406 -0.351,-2.801 -0.359,-4.188l0,-4.421c0.008,-1.383 0.125,-2.782 0.344,-4.188c0.226,-1.414 0.578,-2.781 1.047,-4.094c0.468,-1.312 1.062,-2.539 1.781,-3.687c0.719,-1.145 1.57,-2.145 2.562,-3c1,-0.864 2.141,-1.539 3.422,-2.031c1.289,-0.489 2.735,-0.735 4.328,-0.735c1.602,0 3.051,0.246 4.344,0.735c1.289,0.492 2.43,1.164 3.422,2.015c1,0.856 1.859,1.856 2.578,3c0.719,1.137 1.313,2.367 1.781,3.688c0.469,1.312 0.813,2.679 1.032,4.093c0.226,1.418 0.351,2.821 0.375,4.204l-0,4.421Zm-4.875,-4.468c-0.024,-0.926 -0.086,-1.891 -0.188,-2.891c-0.105,-1 -0.289,-1.992 -0.547,-2.984c-0.261,-0.989 -0.605,-1.93 -1.031,-2.828c-0.418,-0.895 -0.949,-1.68 -1.594,-2.36c-0.636,-0.687 -1.39,-1.226 -2.265,-1.625c-0.867,-0.394 -1.875,-0.594 -3.032,-0.594c-1.136,0 -2.14,0.204 -3.015,0.61c-0.867,0.406 -1.617,0.953 -2.25,1.64c-0.637,0.68 -1.168,1.465 -1.594,2.36c-0.43,0.898 -0.773,1.84 -1.031,2.828c-0.262,0.98 -0.449,1.976 -0.563,2.984c-0.117,1 -0.179,1.953 -0.187,2.86l-0,4.468c0.008,0.907 0.07,1.868 0.187,2.875c0.114,1.012 0.305,2.012 0.578,3c0.27,0.981 0.614,1.922 1.032,2.829c0.426,0.906 0.957,1.703 1.593,2.39c0.645,0.68 1.399,1.219 2.266,1.625c0.875,0.406 1.891,0.61 3.047,0.61c1.145,-0 2.156,-0.204 3.031,-0.61c0.883,-0.406 1.641,-0.945 2.266,-1.625c0.633,-0.687 1.16,-1.476 1.578,-2.375c0.414,-0.894 0.754,-1.832 1.016,-2.812c0.257,-0.989 0.437,-1.989 0.531,-3c0.094,-1.02 0.148,-1.989 0.172,-2.907l-0,-4.468Z" style="fill-rule:nonzero;"/></g><g id="d"><path d="M194.23,46.394l8.844,-19.453l5.593,0l-12.062,24.297l-0.078,14.453l-4.578,0l-0.078,-14.453l-12.063,-24.297l5.609,0l8.813,19.453Z" style="fill-rule:nonzero;"/></g><g id="b1" serif:id="b"><path d="M215.527,26.941l23.437,0l0,4.281l-9.296,0l-0,30.203l9.296,0l0,4.266l-23.437,0l-0,-4.266l9.078,0l0,-30.203l-9.078,0l-0,-4.281Z" style="fill-rule:nonzero;"/></g><g id="e"><path d="M272.527,65.691l-5,0l-15.047,-28.969l-0.078,28.969l-4.968,0l-0,-38.75l5,0l15.031,28.906l0.094,-28.906l4.968,-0l0,38.75Z" style="fill-rule:nonzero;"/></g><g id="f"><path d="M289.543,62.504c0,-0.54 0.082,-1.04 0.25,-1.5c0.164,-0.458 0.41,-0.86 0.734,-1.204c0.321,-0.351 0.723,-0.625 1.204,-0.812c0.476,-0.195 1.035,-0.297 1.671,-0.297c0.633,0 1.196,0.102 1.688,0.297c0.488,0.187 0.895,0.461 1.219,0.812c0.332,0.344 0.582,0.746 0.75,1.204c0.164,0.46 0.25,0.96 0.25,1.5c-0,0.511 -0.086,0.996 -0.25,1.453c-0.168,0.449 -0.418,0.843 -0.75,1.187c-0.324,0.336 -0.731,0.586 -1.219,0.766c-0.492,0.187 -1.055,0.281 -1.688,0.281c-0.636,-0 -1.195,-0.094 -1.671,-0.281c-0.481,-0.18 -0.883,-0.43 -1.204,-0.766c-0.324,-0.344 -0.57,-0.738 -0.734,-1.187c-0.168,-0.457 -0.25,-0.942 -0.25,-1.454Z" style="fill-rule:nonzero;"/></g><g id="f1" serif:id="f"><path d="M322.262,62.504c0,-0.54 0.082,-1.04 0.25,-1.5c0.164,-0.458 0.41,-0.86 0.735,-1.204c0.32,-0.351 0.722,-0.625 1.203,-0.812c0.476,-0.195 1.035,-0.297 1.672,-0.297c0.632,0 1.195,0.102 1.687,0.297c0.488,0.187 0.895,0.461 1.219,0.812c0.332,0.344 0.582,0.746 0.75,1.204c0.164,0.46 0.25,0.96 0.25,1.5c-0,0.511 -0.086,0.996 -0.25,1.453c-0.168,0.449 -0.418,0.843 -0.75,1.187c-0.324,0.336 -0.731,0.586 -1.219,0.766c-0.492,0.187 -1.055,0.281 -1.688,0.281c-0.636,-0 -1.195,-0.094 -1.671,-0.281c-0.481,-0.18 -0.883,-0.43 -1.204,-0.766c-0.324,-0.344 -0.57,-0.738 -0.734,-1.187c-0.168,-0.457 -0.25,-0.942 -0.25,-1.454Z" style="fill-rule:nonzero;"/></g></g><path d="M361.761,8.09l0,68.199" style="fill:none;fill-rule:nonzero;stroke:#000;stroke-width:3.39px;"/></svg>