<svg xmlns="http://www.w3.org/2000/svg" xmlns:xlink="http://www.w3.org/1999/xlink" width="375" viewBox="0 0 375 375" height="375" version="1.0"><defs><g id="h"><path d="M 12 -4.71875 C 12 -5.289062 11.867188 -5.773438 11.609375 -6.171875 C 11.347656 -6.566406 11.007812 -6.894531 10.59375 -7.15625 C 10.1875 -7.425781 9.738281 -7.648438 9.25 -7.828125 C 8.757812 -8.015625 8.289062 -8.179688 7.84375 -8.328125 C 7.175781 -8.535156 6.503906 -8.789062 5.828125 -9.09375 C 5.148438 -9.394531 4.53125 -9.757812 3.96875 -10.1875 C 3.40625 -10.625 2.945312 -11.140625 2.59375 -11.734375 C 2.238281 -12.328125 2.0625 -13.03125 2.0625 -13.84375 C 2.0625 -14.644531 2.238281 -15.359375 2.59375 -15.984375 C 2.945312 -16.617188 3.410156 -17.15625 3.984375 -17.59375 C 4.554688 -18.03125 5.207031 -18.363281 5.9375 -18.59375 C 6.664062 -18.820312 7.394531 -18.9375 8.125 -18.9375 C 8.9375 -18.9375 9.71875 -18.800781 10.46875 -18.53125 C 11.226562 -18.257812 11.894531 -17.878906 12.46875 -17.390625 C 13.050781 -16.898438 13.519531 -16.304688 13.875 -15.609375 C 14.226562 -14.921875 14.410156 -14.148438 14.421875 -13.296875 L 11.984375 -13.296875 C 11.921875 -13.835938 11.789062 -14.328125 11.59375 -14.765625 C 11.394531 -15.203125 11.132812 -15.578125 10.8125 -15.890625 C 10.488281 -16.210938 10.101562 -16.460938 9.65625 -16.640625 C 9.207031 -16.816406 8.695312 -16.90625 8.125 -16.90625 C 7.675781 -16.90625 7.234375 -16.835938 6.796875 -16.703125 C 6.367188 -16.578125 5.984375 -16.382812 5.640625 -16.125 C 5.304688 -15.875 5.039062 -15.5625 4.84375 -15.1875 C 4.644531 -14.8125 4.546875 -14.375 4.546875 -13.875 C 4.546875 -13.332031 4.675781 -12.875 4.9375 -12.5 C 5.207031 -12.132812 5.546875 -11.820312 5.953125 -11.5625 C 6.359375 -11.3125 6.796875 -11.097656 7.265625 -10.921875 C 7.742188 -10.753906 8.195312 -10.609375 8.625 -10.484375 C 9.082031 -10.335938 9.546875 -10.171875 10.015625 -9.984375 C 10.484375 -9.796875 10.9375 -9.582031 11.375 -9.34375 C 11.8125 -9.101562 12.21875 -8.832031 12.59375 -8.53125 C 12.96875 -8.238281 13.296875 -7.898438 13.578125 -7.515625 C 13.859375 -7.140625 14.078125 -6.722656 14.234375 -6.265625 C 14.398438 -5.804688 14.484375 -5.300781 14.484375 -4.75 C 14.484375 -3.90625 14.296875 -3.171875 13.921875 -2.546875 C 13.546875 -1.921875 13.0625 -1.398438 12.46875 -0.984375 C 11.882812 -0.578125 11.21875 -0.269531 10.46875 -0.0625 C 9.726562 0.144531 8.988281 0.25 8.25 0.25 C 7.414062 0.25 6.597656 0.125 5.796875 -0.125 C 5.003906 -0.382812 4.296875 -0.753906 3.671875 -1.234375 C 3.046875 -1.722656 2.535156 -2.3125 2.140625 -3 C 1.742188 -3.695312 1.535156 -4.492188 1.515625 -5.390625 L 3.9375 -5.390625 C 4.007812 -4.804688 4.164062 -4.289062 4.40625 -3.84375 C 4.644531 -3.394531 4.953125 -3.015625 5.328125 -2.703125 C 5.710938 -2.390625 6.148438 -2.148438 6.640625 -1.984375 C 7.128906 -1.828125 7.664062 -1.75 8.25 -1.75 C 8.707031 -1.75 9.160156 -1.804688 9.609375 -1.921875 C 10.054688 -2.046875 10.457031 -2.226562 10.8125 -2.46875 C 11.164062 -2.707031 11.453125 -3.015625 11.671875 -3.390625 C 11.890625 -3.765625 12 -4.207031 12 -4.71875 Z M 12 -4.71875"/></g><g id="i"><path d="M 2.234375 -18.671875 L 13.515625 -18.671875 L 13.515625 -16.609375 L 9.046875 -16.609375 L 9.046875 -2.046875 L 13.515625 -2.046875 L 13.515625 0 L 2.234375 0 L 2.234375 -2.046875 L 6.609375 -2.046875 L 6.609375 -16.609375 L 2.234375 -16.609375 Z M 2.234375 -18.671875"/></g><g id="j"><path d="M 14.375 -8.265625 C 14.363281 -7.597656 14.304688 -6.921875 14.203125 -6.234375 C 14.097656 -5.554688 13.929688 -4.898438 13.703125 -4.265625 C 13.484375 -3.640625 13.203125 -3.050781 12.859375 -2.5 C 12.515625 -1.957031 12.101562 -1.476562 11.625 -1.0625 C 11.144531 -0.65625 10.59375 -0.332031 9.96875 -0.09375 C 9.351562 0.132812 8.660156 0.25 7.890625 0.25 C 7.117188 0.25 6.421875 0.132812 5.796875 -0.09375 C 5.179688 -0.332031 4.632812 -0.65625 4.15625 -1.0625 C 3.675781 -1.476562 3.257812 -1.957031 2.90625 -2.5 C 2.5625 -3.050781 2.273438 -3.644531 2.046875 -4.28125 C 1.816406 -4.914062 1.644531 -5.570312 1.53125 -6.25 C 1.425781 -6.925781 1.367188 -7.597656 1.359375 -8.265625 L 1.359375 -10.390625 C 1.367188 -11.054688 1.425781 -11.726562 1.53125 -12.40625 C 1.632812 -13.082031 1.800781 -13.738281 2.03125 -14.375 C 2.257812 -15.007812 2.546875 -15.601562 2.890625 -16.15625 C 3.234375 -16.707031 3.644531 -17.1875 4.125 -17.59375 C 4.601562 -18.007812 5.148438 -18.335938 5.765625 -18.578125 C 6.390625 -18.816406 7.085938 -18.9375 7.859375 -18.9375 C 8.628906 -18.9375 9.328125 -18.816406 9.953125 -18.578125 C 10.578125 -18.335938 11.128906 -18.015625 11.609375 -17.609375 C 12.085938 -17.203125 12.5 -16.722656 12.84375 -16.171875 C 13.1875 -15.617188 13.472656 -15.023438 13.703125 -14.390625 C 13.929688 -13.753906 14.097656 -13.09375 14.203125 -12.40625 C 14.304688 -11.726562 14.363281 -11.054688 14.375 -10.390625 Z M 12.03125 -10.40625 C 12.019531 -10.851562 11.988281 -11.316406 11.9375 -11.796875 C 11.882812 -12.285156 11.796875 -12.765625 11.671875 -13.234375 C 11.546875 -13.710938 11.378906 -14.164062 11.171875 -14.59375 C 10.972656 -15.03125 10.71875 -15.410156 10.40625 -15.734375 C 10.101562 -16.066406 9.742188 -16.328125 9.328125 -16.515625 C 8.910156 -16.710938 8.421875 -16.8125 7.859375 -16.8125 C 7.316406 -16.8125 6.832031 -16.710938 6.40625 -16.515625 C 5.988281 -16.316406 5.625 -16.050781 5.3125 -15.71875 C 5.007812 -15.394531 4.753906 -15.015625 4.546875 -14.578125 C 4.347656 -14.148438 4.1875 -13.695312 4.0625 -13.21875 C 3.9375 -12.75 3.84375 -12.269531 3.78125 -11.78125 C 3.726562 -11.300781 3.695312 -10.84375 3.6875 -10.40625 L 3.6875 -8.265625 C 3.695312 -7.828125 3.726562 -7.363281 3.78125 -6.875 C 3.84375 -6.382812 3.9375 -5.898438 4.0625 -5.421875 C 4.195312 -4.953125 4.363281 -4.5 4.5625 -4.0625 C 4.769531 -3.625 5.023438 -3.238281 5.328125 -2.90625 C 5.640625 -2.582031 6.003906 -2.320312 6.421875 -2.125 C 6.835938 -1.925781 7.328125 -1.828125 7.890625 -1.828125 C 8.441406 -1.828125 8.925781 -1.925781 9.34375 -2.125 C 9.769531 -2.320312 10.132812 -2.582031 10.4375 -2.90625 C 10.75 -3.238281 11.003906 -3.617188 11.203125 -4.046875 C 11.398438 -4.484375 11.5625 -4.9375 11.6875 -5.40625 C 11.8125 -5.882812 11.894531 -6.367188 11.9375 -6.859375 C 11.988281 -7.347656 12.019531 -7.816406 12.03125 -8.265625 Z M 12.03125 -10.40625"/></g><g id="k"><path d="M 7.734375 -9.296875 L 11.984375 -18.671875 L 14.6875 -18.671875 L 8.875 -6.96875 L 8.84375 0 L 6.625 0 L 6.59375 -6.96875 L 0.78125 -18.671875 L 3.484375 -18.671875 Z M 7.734375 -9.296875"/></g><g id="l"><path d="M 13.921875 0 L 11.515625 0 L 4.265625 -13.953125 L 4.234375 0 L 1.828125 0 L 1.828125 -18.671875 L 4.25 -18.671875 L 11.484375 -4.75 L 11.53125 -18.671875 L 13.921875 -18.671875 Z M 13.921875 0"/></g><g id="m"><path d="M 6.359375 -1.53125 C 6.359375 -1.789062 6.398438 -2.03125 6.484375 -2.25 C 6.566406 -2.476562 6.679688 -2.675781 6.828125 -2.84375 C 6.984375 -3.007812 7.175781 -3.140625 7.40625 -3.234375 C 7.644531 -3.328125 7.914062 -3.375 8.21875 -3.375 C 8.53125 -3.375 8.800781 -3.328125 9.03125 -3.234375 C 9.269531 -3.140625 9.46875 -3.007812 9.625 -2.84375 C 9.78125 -2.675781 9.898438 -2.476562 9.984375 -2.25 C 10.066406 -2.03125 10.109375 -1.789062 10.109375 -1.53125 C 10.109375 -1.289062 10.066406 -1.0625 9.984375 -0.84375 C 9.898438 -0.625 9.78125 -0.429688 9.625 -0.265625 C 9.46875 -0.109375 9.269531 0.015625 9.03125 0.109375 C 8.800781 0.203125 8.53125 0.25 8.21875 0.25 C 7.914062 0.25 7.644531 0.203125 7.40625 0.109375 C 7.175781 0.015625 6.984375 -0.109375 6.828125 -0.265625 C 6.679688 -0.429688 6.566406 -0.625 6.484375 -0.84375 C 6.398438 -1.0625 6.359375 -1.289062 6.359375 -1.53125 Z M 6.359375 -1.53125"/></g><clipPath id="b"><path d="M 126 159 L 168.917969 159 L 168.917969 232 L 126 232 Z M 126 159"/></clipPath><clipPath id="c"><path d="M 69 133 L 125 133 L 125 257.195312 L 69 257.195312 Z M 69 133"/></clipPath><clipPath id="f"><path d="M 8 0.441406 L 344 0.441406 L 344 197 L 8 197 Z M 8 0.441406"/></clipPath><clipPath id="g"><path d="M 0.355469 0.441406 L 358.855469 0.441406 L 358.855469 241.941406 L 0.355469 241.941406 Z M 0.355469 0.441406"/></clipPath><clipPath id="e"><path d="M0 0H359V243H0z"/></clipPath><filter x="0%" y="0%" width="100%" xmlns:xlink="http://www.w3.org/1999/xlink" xlink:type="simple" xlink:actuate="onLoad" height="100%" id="a" xlink:show="other"><feColorMatrix values="0 0 0 0 1 0 0 0 0 1 0 0 0 0 1 0 0 0 1 0" color-interpolation-filters="sRGB"/></filter><mask id="d"><g filter="url(#a)"><path fill-opacity=".267" d="M-37.5 -37.5H412.5V412.5H-37.5z"/></g></mask></defs><path fill="#231F20" d="M 56.769531 231.144531 C 55.609375 231.144531 54.449219 230.699219 53.566406 229.8125 L 19.105469 195.253906 L 53.566406 160.691406 C 55.335938 158.914062 58.203125 158.914062 59.972656 160.691406 C 61.742188 162.464844 61.742188 165.34375 59.972656 167.117188 L 31.925781 195.253906 L 59.972656 223.386719 C 61.742188 225.160156 61.742188 228.039062 59.972656 229.8125 C 59.089844 230.699219 57.929688 231.144531 56.769531 231.144531"/><g clip-path="url(#b)"><path fill="#231F20" d="M 131.089844 231.144531 C 129.929688 231.144531 128.769531 230.699219 127.882812 229.8125 C 126.117188 228.039062 126.117188 225.160156 127.882812 223.386719 L 155.933594 195.253906 L 127.882812 167.117188 C 126.117188 165.34375 126.117188 162.464844 127.882812 160.691406 C 129.65625 158.914062 132.523438 158.914062 134.292969 160.691406 L 168.75 195.253906 L 134.292969 229.8125 C 133.410156 230.699219 132.25 231.144531 131.089844 231.144531"/></g><g clip-path="url(#c)"><path fill="#231F20" d="M 73.597656 257.203125 C 73.035156 257.203125 72.464844 257.101562 71.910156 256.875 C 69.589844 255.941406 68.464844 253.292969 69.394531 250.964844 L 115.40625 136.148438 C 116.34375 133.820312 118.980469 132.691406 121.300781 133.628906 C 123.625 134.5625 124.75 137.210938 123.816406 139.539062 L 77.804688 254.355469 C 77.09375 256.128906 75.394531 257.203125 73.597656 257.203125"/></g><g mask="url(#d)"><g><g clip-path="url(#e)" transform="translate(8 56)"><g clip-path="url(#f)"><path fill="#36AB9C" d="M 13.8125 0.566406 L 107.382812 0.566406 C 109.117188 0.566406 110.75 1.289062 111.765625 2.507812 L 141.515625 38.21875 C 142.535156 39.4375 144.164062 40.160156 145.902344 40.160156 L 338.554688 40.160156 C 341.535156 40.160156 343.957031 42.253906 343.957031 44.835938 L 343.957031 191.664062 C 343.957031 194.238281 341.523438 196.339844 338.554688 196.339844 L 13.8125 196.339844 C 10.839844 196.339844 8.40625 194.238281 8.40625 191.664062 L 8.40625 5.242188 C 8.40625 2.667969 10.839844 0.566406 13.8125 0.566406"/></g><g clip-path="url(#g)"><path fill="#565759" d="M 353.113281 0.566406 L 253.144531 0.566406 C 251.289062 0.566406 249.546875 1.457031 248.460938 2.957031 L 216.675781 46.960938 C 215.585938 48.464844 213.84375 49.351562 211.992188 49.351562 L 6.164062 49.351562 C 2.972656 49.351562 0.390625 51.933594 0.390625 55.117188 L 0.390625 236.039062 C 0.390625 239.207031 2.988281 241.800781 6.164062 241.800781 L 353.113281 241.800781 C 356.289062 241.800781 358.886719 239.207031 358.886719 236.039062 L 358.886719 6.328125 C 358.886719 3.160156 356.289062 0.566406 353.113281 0.566406"/></g></g></g></g><g><use x="188.055" y="205.931" xmlns:xlink="http://www.w3.org/1999/xlink" xlink:href="#h" xlink:type="simple" xlink:actuate="onLoad" xlink:show="embed"/><use x="203.818" y="205.931" xmlns:xlink="http://www.w3.org/1999/xlink" xlink:href="#i" xlink:type="simple" xlink:actuate="onLoad" xlink:show="embed"/><use x="219.581" y="205.931" xmlns:xlink="http://www.w3.org/1999/xlink" xlink:href="#h" xlink:type="simple" xlink:actuate="onLoad" xlink:show="embed"/><use x="235.344" y="205.931" xmlns:xlink="http://www.w3.org/1999/xlink" xlink:href="#j" xlink:type="simple" xlink:actuate="onLoad" xlink:show="embed"/><use x="251.106" y="205.931" xmlns:xlink="http://www.w3.org/1999/xlink" xlink:href="#j" xlink:type="simple" xlink:actuate="onLoad" xlink:show="embed"/><use x="266.869" y="205.931" xmlns:xlink="http://www.w3.org/1999/xlink" xlink:href="#k" xlink:type="simple" xlink:actuate="onLoad" xlink:show="embed"/><use x="282.632" y="205.931" xmlns:xlink="http://www.w3.org/1999/xlink" xlink:href="#i" xlink:type="simple" xlink:actuate="onLoad" xlink:show="embed"/><use x="298.395" y="205.931" xmlns:xlink="http://www.w3.org/1999/xlink" xlink:href="#l" xlink:type="simple" xlink:actuate="onLoad" xlink:show="embed"/><use x="314.158" y="205.931" xmlns:xlink="http://www.w3.org/1999/xlink" xlink:href="#m" xlink:type="simple" xlink:actuate="onLoad" xlink:show="embed"/><use x="329.921" y="205.931" xmlns:xlink="http://www.w3.org/1999/xlink" xlink:href="#m" xlink:type="simple" xlink:actuate="onLoad" xlink:show="embed"/></g><path stroke-linecap="round" transform="matrix(0 1.62717 -1.6417 0 355.31 177.367)" fill="none" d="M 0.499364 0.000780302 L 20.69118 0.000780302" stroke="#000"/></svg>